<?xml version="1.0" encoding="UTF-8"?>
<svg width="1200" height="630" viewBox="0 0 1200 630" xmlns="http://www.w3.org/2000/svg" role="img" aria-label="Preview da aplicação To-Do List">
  <defs>
    <linearGradient id="g" x1="0" x2="1" y1="0" y2="1">
      <stop offset="0%" stop-color="#7c3aed"/>
      <stop offset="100%" stop-color="#0ea5e9"/>
    </linearGradient>
    <filter id="s" x="-20%" y="-20%" width="140%" height="140%">
      <feDropShadow dx="0" dy="10" stdDeviation="20" flood-color="#000" flood-opacity="0.35"/>
    </filter>
  </defs>
  <rect width="1200" height="630" fill="#0f172a"/>
  <circle cx="250" cy="-50" r="300" fill="url(#g)" opacity="0.25"/>
  <g filter="url(#s)">
    <rect x="220" y="110" width="760" height="410" rx="16" fill="#111827" stroke="#1f2937"/>
    <rect x="250" y="150" width="250" height="20" rx="6" fill="#7c3aed"/>
    <rect x="250" y="200" width="580" height="14" rx="5" fill="#1f2937"/>
    <rect x="250" y="230" width="560" height="60" rx="10" fill="#0b1220" stroke="#1f2937"/>
    <rect x="830" y="230" width="120" height="60" rx="10" fill="#7c3aed"/>

    <rect x="250" y="310" width="700" height="58" rx="10" fill="#0b1220" stroke="#1f2937"/>
    <circle cx="278" cy="339" r="12" fill="#111827" stroke="#374151"/>
    <rect x="302" y="326" width="360" height="14" rx="6" fill="#374151"/>
    <rect x="302" y="348" width="160" height="10" rx="5" fill="#1f2937"/>

    <rect x="250" y="380" width="700" height="58" rx="10" fill="#0b1220" stroke="#1f2937"/>
    <circle cx="278" cy="409" r="12" fill="#111827" stroke="#374151"/>
    <rect x="302" y="396" width="420" height="14" rx="6" fill="#374151"/>
    <rect x="302" y="418" width="160" height="10" rx="5" fill="#1f2937"/>

    <rect x="250" y="450" width="700" height="58" rx="10" fill="#0b1220" stroke="#1f2937"/>
    <circle cx="278" cy="479" r="12" fill="#7c3aed"/>
    <rect x="302" y="466" width="300" height="14" rx="6" fill="#374151"/>
    <rect x="302" y="488" width="160" height="10" rx="5" fill="#1f2937"/>
  </g>
  <text x="50%" y="595" text-anchor="middle" fill="#e2e8f0" font-family="Inter, ui-sans-serif, system-ui" font-weight="700" font-size="20">To-Do List • JavaScript Vanilla • Tema claro/escuro • Filtros • LocalStorage</text>
</svg>
